<svg width="600" height="600" viewBox="115 115 380 381" xmlns="http://www.w3.org/2000/svg">  
  <style>    
    /* Default rules for Light Mode */    
    .theme-fill {     
      fill: #000000;     
    }    
    .theme-stroke {     
      stroke: rgba(0, 0, 0, 0.5);     
    }    
    
    /* Rules that activate during Dark Mode */    
    @media (prefers-color-scheme: dark) {    
      .theme-fill {     
        fill: #FFFFFF;     
      }    
      .theme-stroke {     
        stroke: rgba(255, 255, 255, 0.6);     
      }    
    }    
  </style>    
    
  <defs>    
    <!-- Mask definition matching your text position -->    
    <mask id="globe-cutout">    
      <!-- White canvas keeps everything behind it visible -->    
      <rect x="0" y="0" width="1000" height="1000" fill="#FFFFFF" />    
          
      <!-- Black text paths with a stroke to eat into the globe -->    
      <g transform="translate(-101 -170)" fill="#000000" stroke="#000000" stroke-width="12" stroke-linejoin="round" stroke-linecap="round">    
        <!-- First Path Mask -->    
        <path d="M 174.95 419.25 C172.74,417.27 171.72,415.30 171.30,412.20 L 170.72 407.90 L 188.97 389.55 L 207.22 371.21 L 189.71 353.70 C170.83,334.81 169.51,332.77 172.50,326.99 C174.43,323.27 179.97,320.61 183.97,321.49 C185.68,321.87 191.58,326.86 199.55,334.69 C206.61,341.61 214.57,349.32 217.24,351.82 L 222.11 356.37 L 238.80 339.79 C247.99,330.67 256.48,322.72 257.68,322.11 C261.18,320.34 264.62,320.81 267.83,323.51 C271.85,326.89 273.14,330.80 271.49,334.57 C270.78,336.18 262.73,344.92 253.60,353.99 C244.47,363.06 237.00,370.85 237.00,371.32 C237.00,371.78 244.36,379.33 253.35,388.10 C270.83,405.13 273.73,408.96 272.60,413.48 C271.40,418.23 266.76,422.00 262.10,422.00 C258.18,422.00 257.40,421.37 239.78,404.03 L 221.52 386.05 L 203.45 404.03 C186.60,420.78 185.13,422.00 181.70,422.00 C179.11,422.00 177.13,421.19 174.95,419.25 Z" />    
        <!-- Second Path Mask -->    
        <path d="M 339.13 419.43 C336.11,415.60 336.26,409.64 339.45,406.45 C341.34,404.57 342.96,404.00 346.45,404.00 L 351.00 404.00 L 351.00 340.00 L 347.57 340.00 C342.03,340.00 339.04,338.35 337.38,334.36 C335.64,330.19 336.06,327.46 339.05,323.66 L 341.15 321.00 L 366.32 321.03 C402.73,321.09 411.61,323.21 421.55,334.27 C430.57,344.30 433.50,354.85 432.77,374.70 C432.26,388.79 429.96,397.12 424.37,405.18 C420.60,410.63 412.60,416.56 405.36,419.27 C399.91,421.31 397.46,421.49 370.38,421.80 L 341.25 422.13 Z M 396.14 401.17 C407.48,396.71 413.67,381.15 410.98,363.85 C408.31,346.74 399.41,340.00 379.45,340.00 L 372.00 340.00 L 372.00 402.87 L 374.75 403.18 C378.98,403.67 393.18,402.33 396.14,401.17 Z" />    
      </g>    
    </mask>    
  </defs>    
    
  <!-- Globe/Grid Icon Group (Mask applied here) -->    
  <g transform="translate(100 100)" mask="url(#globe-cutout)">    
    <path class="theme-stroke" d="M12 2C14.5013 4.73835 15.9228 8.29203 16 12C15.9228 15.708 14.5013 19.2616 12 22M12 2C9.49872 4.73835 8.07725 8.29203 8 12C8.07725 15.708 9.49872 19.2616 12 22M12 2C6.47715 2 2 6.47715 2 12C2 17.5228 6.47715 22 12 22M12 2C17.5228 2 22 6.47715 22 12C22 17.5228 17.5228 22 12 22M2.50002 9H21.5M2.5 15H21.5"    
      transform="translate(-13 -12) scale(18.2)"    
      stroke-width="0.8"    
      stroke-linecap="round"    
      stroke-linejoin="round"    
      fill="none"/>    
  </g>    
    
  <!-- Foreground Text Paths -->    
  <g transform="translate(-1 -70)">    
    <!-- First Path -->    
    <path class="theme-fill" fill-rule="evenodd" d="M 174.95 419.25 C172.74,417.27 171.72,415.30 171.30,412.20 L 170.72 407.90 L 188.97 389.55 L 207.22 371.21 L 189.71 353.70 C170.83,334.81 169.51,332.77 172.50,326.99 C174.43,323.27 179.97,320.61 183.97,321.49 C185.68,321.87 191.58,326.86 199.55,334.69 C206.61,341.61 214.57,349.32 217.24,351.82 L 222.11 356.37 L 238.80 339.79 C247.99,330.67 256.48,322.72 257.68,322.11 C261.18,320.34 264.62,320.81 267.83,323.51 C271.85,326.89 273.14,330.80 271.49,334.57 C270.78,336.18 262.73,344.92 253.60,353.99 C244.47,363.06 237.00,370.85 237.00,371.32 C237.00,371.78 244.36,379.33 253.35,388.10 C270.83,405.13 273.73,408.96 272.60,413.48 C271.40,418.23 266.76,422.00 262.10,422.00 C258.18,422.00 257.40,421.37 239.78,404.03 L 221.52 386.05 L 203.45 404.03 C186.60,420.78 185.13,422.00 181.70,422.00 C179.11,422.00 177.13,421.19 174.95,419.25 Z" />    
    
    <!-- Second Path -->    
    <path class="theme-fill" fill-rule="evenodd" d="M 339.13 419.43 C336.11,415.60 336.26,409.64 339.45,406.45 C341.34,404.57 342.96,404.00 346.45,404.00 L 351.00 404.00 L 351.00 340.00 L 347.57 340.00 C342.03,340.00 339.04,338.35 337.38,334.36 C335.64,330.19 336.06,327.46 339.05,323.66 L 341.15 321.00 L 366.32 321.03 C402.73,321.09 411.61,323.21 421.55,334.27 C430.57,344.30 433.50,354.85 432.77,374.70 C432.26,388.79 429.96,397.12 424.37,405.18 C420.60,410.63 412.60,416.56 405.36,419.27 C399.91,421.31 397.46,421.49 370.38,421.80 L 341.25 422.13 Z M 396.14 401.17 C407.48,396.71 413.67,381.15 410.98,363.85 C408.31,346.74 399.41,340.00 379.45,340.00 L 372.00 340.00 L 372.00 402.87 L 374.75 403.18 C378.98,403.67 393.18,402.33 396.14,401.17 Z" />    
  </g>    
</svg>
